<svg width="32" height="32" viewBox="0 0 32 32" fill="none" xmlns="http://www.w3.org/2000/svg">
<path d="M2.66675 2.66663H4.4083C4.73632 2.66663 4.90034 2.66663 5.03233 2.72695C5.14864 2.7801 5.24721 2.86559 5.31628 2.97322C5.39466 3.09535 5.41786 3.25772 5.46425 3.58244L6.09532 7.99996M6.09532 7.99996L7.49784 18.3085C7.67582 19.6167 7.76481 20.2707 8.07755 20.7631C8.35312 21.1969 8.74819 21.5419 9.21522 21.7565C9.74523 22 10.4053 22 11.7256 22H23.1361C24.3928 22 25.0212 22 25.5347 21.7738C25.9875 21.5745 26.3759 21.2531 26.6565 20.8456C26.9747 20.3834 27.0922 19.7662 27.3274 18.5316L29.0922 9.26621C29.175 8.8317 29.2164 8.61445 29.1564 8.44463C29.1038 8.29565 29 8.17021 28.8635 8.09065C28.7079 7.99996 28.4867 7.99996 28.0444 7.99996H6.09532ZM13.3334 28C13.3334 28.7363 12.7365 29.3333 12.0001 29.3333C11.2637 29.3333 10.6667 28.7363 10.6667 28C10.6667 27.2636 11.2637 26.6666 12.0001 26.6666C12.7365 26.6666 13.3334 27.2636 13.3334 28ZM24.0001 28C24.0001 28.7363 23.4031 29.3333 22.6667 29.3333C21.9304 29.3333 21.3334 28.7363 21.3334 28C21.3334 27.2636 21.9304 26.6666 22.6667 26.6666C23.4031 26.6666 24.0001 27.2636 24.0001 28Z" stroke="currentColor"  stroke-width="2" stroke-linecap="round" stroke-linejoin="round"/>
</svg>
