<svg width="16" height="16" viewBox="0 0 16 16" fill="none" xmlns="http://www.w3.org/2000/svg">
<g clip-path="url(#clip0_598_27726)">
<path d="M10.0625 13C10.0625 14.1047 9.41719 15 8.3125 15H4.1875C3.08281 15 2.4375 14.1047 2.4375 13" stroke="currentColor" stroke-miterlimit="10" stroke-linecap="round"/>
<path d="M10.5 10.5C11.0522 10.5 11.5 11.0597 11.5 11.75C11.5 12.4403 11.0522 13 10.5 13H2C1.44781 13 1 12.4403 1 11.75C1 11.0597 1.44781 10.5 2 10.5" stroke="currentColor" stroke-miterlimit="10" stroke-linecap="round"/>
<path d="M10.75 10.5H5.60344C5.53722 10.5 5.47372 10.5263 5.42688 10.5731L4.58844 11.4116C4.57683 11.4232 4.56304 11.4324 4.54787 11.4387C4.53269 11.445 4.51643 11.4482 4.5 11.4482C4.48357 11.4482 4.46731 11.445 4.45213 11.4387C4.43696 11.4324 4.42317 11.4232 4.41156 11.4116L3.57312 10.5731C3.52628 10.5263 3.46278 10.5 3.39656 10.5H1.75C1.55109 10.5 1.36032 10.421 1.21967 10.2803C1.07902 10.1397 1 9.94891 1 9.75C1 9.55109 1.07902 9.36032 1.21967 9.21967C1.36032 9.07902 1.55109 9 1.75 9H10.75C10.9489 9 11.1397 9.07902 11.2803 9.21967C11.421 9.36032 11.5 9.55109 11.5 9.75C11.5 9.94891 11.421 10.1397 11.2803 10.2803C11.1397 10.421 10.9489 10.5 10.75 10.5Z" stroke="currentColor" stroke-miterlimit="10" stroke-linecap="round"/>
<path d="M2 8.625V8.61812C2 6.89937 3.40625 6 5.125 6H7.375C9.09375 6 10.5 6.90625 10.5 8.625V8.61812" stroke="currentColor" stroke-miterlimit="10" stroke-linecap="round"/>
<path d="M7.53125 3.5L7.76375 5.49906" stroke="currentColor" stroke-miterlimit="10" stroke-linecap="round"/>
<path d="M8 15H12.3534C12.6057 15 12.8487 14.9046 13.0336 14.733C13.2185 14.5614 13.3318 14.3263 13.3506 14.0747L14.4688 3.5" stroke="currentColor" stroke-miterlimit="10" stroke-linecap="round"/>
<path d="M11.5 3.5L12 1.5L13.4688 1" stroke="currentColor" stroke-linecap="round" stroke-linejoin="round"/>
<path d="M7 3.5H15" stroke="currentColor" stroke-miterlimit="10" stroke-linecap="round"/>
</g>
<defs>
<clipPath id="clip0_598_27726">
<rect width="16" height="16" fill="white"/>
</clipPath>
</defs>
</svg>
