<svg width="24" height="24" viewBox="0 0 24 24" fill="none" xmlns="http://www.w3.org/2000/svg">
<path d="M20.9879 10.6874L5.23785 1.69776C4.97237 1.54883 4.66785 1.4842 4.36476 1.51246C4.06167 1.54072 3.77435 1.66052 3.54096 1.85596C3.30758 2.05139 3.13918 2.31321 3.05814 2.60663C2.97709 2.90005 2.98724 3.21118 3.08723 3.49869L5.99348 11.9803C5.99311 11.9834 5.99311 11.9865 5.99348 11.9896C5.99295 11.9927 5.99295 11.9959 5.99348 11.999L3.08723 20.4993C3.00715 20.7255 2.9825 20.9676 3.01534 21.2052C3.04817 21.4429 3.13754 21.6692 3.27594 21.8652C3.41435 22.0612 3.59774 22.2211 3.81074 22.3316C4.02373 22.442 4.26011 22.4998 4.50004 22.4999C4.76036 22.4993 5.0161 22.4315 5.24254 22.3031L20.9841 13.2984C21.2163 13.1683 21.4097 12.9788 21.5445 12.7493C21.6793 12.5198 21.7505 12.2586 21.751 11.9924C21.7515 11.7263 21.6812 11.4648 21.5472 11.2348C21.4133 11.0048 21.2205 10.8146 20.9888 10.6837L20.9879 10.6874ZM4.50004 20.9999V20.9915L7.32567 12.7499H12.75C12.949 12.7499 13.1397 12.6709 13.2804 12.5303C13.421 12.3896 13.5 12.1989 13.5 11.9999C13.5 11.801 13.421 11.6103 13.2804 11.4696C13.1397 11.329 12.949 11.2499 12.75 11.2499H7.33317L4.50567 3.01119L4.50004 2.99994L20.25 11.984L4.50004 20.9999Z" fill="#58ABFD"/>
</svg>
