<svg width="24" height="24" viewBox="0 0 24 24" fill="none" xmlns="http://www.w3.org/2000/svg">
<path d="M17.7448 2.8128C18.7096 1.81632 20.3036 1.80343 21.2844 2.78418C22.2382 3.73805 22.256 5.27902 21.3244 6.25463L18.5457 9.16439C18.3279 9.39246 18.219 9.5065 18.1519 9.64006C18.0925 9.75829 18.0571 9.88714 18.0479 10.0191C18.0375 10.1682 18.0729 10.3219 18.1438 10.6292L19.8717 18.1167C19.9445 18.4321 19.9809 18.5898 19.9691 18.7424C19.9588 18.8774 19.921 19.0089 19.8583 19.1289C19.7874 19.2645 19.673 19.379 19.4441 19.6079L19.0733 19.9786C18.4671 20.5848 18.1641 20.8878 17.8539 20.9427C17.583 20.9906 17.3044 20.9248 17.0835 20.7609C16.8306 20.5731 16.6951 20.1665 16.424 19.3532L14.4143 13.3239L11.0689 16.6693C10.8693 16.869 10.7694 16.9688 10.7026 17.0864C10.6435 17.1905 10.6035 17.3045 10.5846 17.4228C10.5633 17.5563 10.5789 17.6967 10.6101 17.9773L10.7938 19.6307C10.825 19.9114 10.8406 20.0517 10.8193 20.1853C10.8004 20.3036 10.7605 20.4175 10.7013 20.5217C10.6345 20.6393 10.5347 20.7391 10.335 20.9388L10.1375 21.1363C9.6644 21.6093 9.42787 21.8459 9.16502 21.9144C8.93448 21.9745 8.69005 21.9503 8.47577 21.8461C8.23146 21.7274 8.04591 21.4491 7.67481 20.8924L6.10649 18.54C6.04019 18.4405 6.00704 18.3908 5.96855 18.3457C5.93436 18.3056 5.89707 18.2683 5.857 18.2341C5.81191 18.1956 5.76218 18.1625 5.66273 18.0962L3.31025 16.5279C2.7536 16.1568 2.47527 15.9712 2.35655 15.7269C2.25242 15.5126 2.22822 15.2682 2.2883 15.0377C2.35681 14.7748 2.59334 14.5383 3.06639 14.0652L3.2639 13.8677C3.46359 13.668 3.56343 13.5682 3.68101 13.5014C3.78517 13.4422 3.89912 13.4023 4.01742 13.3834C4.15095 13.3621 4.29129 13.3777 4.57196 13.4089L6.22535 13.5926C6.50602 13.6238 6.64636 13.6394 6.77989 13.6181C6.89819 13.5992 7.01214 13.5592 7.1163 13.5001C7.23388 13.4333 7.33372 13.3334 7.53341 13.1337L10.8787 9.78841L4.84945 7.77865C4.03623 7.50758 3.62961 7.37204 3.44182 7.11913C3.27783 6.89829 3.21206 6.61966 3.25997 6.3488C3.31483 6.03861 3.6179 5.73554 4.22405 5.12939L4.59482 4.75862C4.82371 4.52973 4.93816 4.41528 5.07375 4.34439C5.19376 4.28164 5.32527 4.24393 5.46029 4.23353C5.61284 4.22178 5.77055 4.25818 6.08596 4.33096L13.5451 6.0523C13.8551 6.12383 14.01 6.15959 14.1597 6.14895C14.3041 6.13868 14.4446 6.09715 14.5715 6.02724C14.7028 5.95482 14.8135 5.84055 15.0347 5.61202L17.7448 2.8128Z" stroke="currentColor"  stroke-width="1.5" stroke-linecap="round" stroke-linejoin="round"/>
</svg>
