<svg width="15" height="15" viewBox="0 0 15 15" fill="none" xmlns="http://www.w3.org/2000/svg">
<path d="M12.9698 4.86438H8.96984L6.96984 0.864378C6.92592 0.770906 7.0591 0.910372 6.96984 0.864378C6.74598 0.74865 7.08177 0.629955 6.96984 0.864378L4.96984 4.86438H0.969838C0.870659 4.87921 1.03926 4.79019 0.969838 4.86438C0.885907 4.95471 0.968244 5.73835 0.969838 5.86438C0.883651 5.7764 0.971432 5.9904 0.969838 5.86438L3.96984 8.86438L2.96984 11.8644C2.95542 11.9517 2.93802 12.7823 2.96984 12.8644C2.90139 12.8123 3.00166 12.9465 2.96984 12.8644C3.03828 12.9164 3.88546 12.8581 3.96984 12.8644C3.89503 12.9057 4.05421 12.8707 3.96984 12.8644L6.96984 10.8644L9.96984 12.8644C10.0577 12.9133 10.8721 12.8822 10.9698 12.8644C11.2164 12.8199 11.0123 12.1225 10.9698 11.8644L9.96984 8.86438L12.9698 5.86438C12.9557 5.96824 13.0407 5.79168 12.9698 5.86438C13.0081 5.60473 13.2178 4.90295 12.9698 4.86438Z" fill="#F8FBFF"/>
</svg>
